<svg width="39" height="32" viewBox="0 0 39 32" fill="none" xmlns="http://www.w3.org/2000/svg">
<path d="M32.3333 23.3333H36C37.1 23.3333 37.8333 22.6 37.8333 21.5V16C37.8333 14.35 36.55 12.8833 35.0833 12.5167C31.7833 11.6 26.8333 10.5 26.8333 10.5C26.8333 10.5 24.45 7.93333 22.8 6.28333C21.8833 5.55 20.7833 5 19.5 5H6.66663C5.56663 5 4.64996 5.73333 4.09996 6.65L1.53329 11.9667C1.29052 12.6747 1.16663 13.4181 1.16663 14.1667V21.5C1.16663 22.6 1.89996 23.3333 2.99996 23.3333H6.66663" fill="#2B9AF4"/>
<path d="M32.3333 23.3333H36C37.1 23.3333 37.8333 22.6 37.8333 21.5V16C37.8333 14.35 36.55 12.8833 35.0833 12.5167C31.7833 11.6 26.8333 10.5 26.8333 10.5C26.8333 10.5 24.45 7.93333 22.8 6.28333C21.8833 5.55 20.7833 5 19.5 5H6.66663C5.56663 5 4.64996 5.73333 4.09996 6.65L1.53329 11.9667C1.29052 12.6747 1.16663 13.4181 1.16663 14.1667V21.5C1.16663 22.6 1.89996 23.3333 2.99996 23.3333H6.66663" stroke="#2B9AF4" stroke-width="2" stroke-linecap="round" stroke-linejoin="round"/>
<path d="M10.3333 26.9998C12.3583 26.9998 14 25.3582 14 23.3332C14 21.3081 12.3583 19.6665 10.3333 19.6665C8.30825 19.6665 6.66663 21.3081 6.66663 23.3332C6.66663 25.3582 8.30825 26.9998 10.3333 26.9998Z" fill="white" stroke="#2B9AF4" stroke-width="2" stroke-linecap="round" stroke-linejoin="round"/>
<path d="M14.0001 23.333H25.0001" stroke="#2B9AF4" stroke-width="2" stroke-linecap="round" stroke-linejoin="round"/>
<path d="M28.6668 26.9998C30.6918 26.9998 32.3335 25.3582 32.3335 23.3332C32.3335 21.3081 30.6918 19.6665 28.6668 19.6665C26.6417 19.6665 25.0001 21.3081 25.0001 23.3332C25.0001 25.3582 26.6417 26.9998 28.6668 26.9998Z" fill="white" stroke="#2B9AF4" stroke-width="2" stroke-linecap="round" stroke-linejoin="round"/>
</svg>
