<svg width="25" height="24" viewBox="0 0 25 24" fill="none" xmlns="http://www.w3.org/2000/svg">
<g clip-path="url(#clip0_48_11463)">
<g clip-path="url(#clip1_48_11463)">
<path d="M14.5058 6.02931C13.4896 5.54741 12.3612 5.35159 11.2421 5.4629C10.133 5.56367 9.07517 5.97677 8.19131 6.65431C7.07908 7.53526 6.33362 8.79787 6.09952 10.1973L6.00577 10.6875L5.51749 10.7735C5.08005 10.8462 4.65088 10.962 4.23624 11.1192C3.88964 11.2494 3.56138 11.424 3.25967 11.6387C3.04235 11.7959 2.84552 11.9796 2.67374 12.1856C2.17735 12.7967 1.9143 13.5644 1.93155 14.3516C1.93997 15.1606 2.19854 15.9473 2.67178 16.6035C2.84935 16.8495 3.05665 17.0725 3.28897 17.2676C3.53162 17.4692 3.80363 17.6325 4.09561 17.752C4.4146 17.8809 4.74864 17.9688 5.08975 18.0137H19.2597C19.8932 17.8705 20.5042 17.6419 21.0761 17.334C21.562 17.0738 21.9873 16.7137 22.3241 16.2774C22.8124 15.627 23.0526 14.7149 23.0624 13.7637C23.0923 12.8129 22.849 11.8734 22.3612 11.0567C22.2317 10.8559 22.0846 10.667 21.9218 10.4922C21.5996 10.141 21.2069 9.86164 20.7694 9.6725C20.3318 9.48336 19.8593 9.38864 19.3827 9.39454C18.8803 9.39476 18.3812 9.4752 17.9042 9.63283C16.9062 8.22267 16.1679 6.82814 14.5058 6.02931ZM8.57413 12.6348C8.42804 12.6304 8.28333 12.6641 8.15422 12.7326C8.02511 12.8011 7.91606 12.902 7.8378 13.0254C7.6436 13.3459 7.551 13.7177 7.57217 14.0918C7.57217 15.0332 7.9309 15.5039 8.64834 15.5039C8.86124 15.5048 9.07311 15.4745 9.27725 15.4141C9.47256 15.3535 9.68545 15.2813 9.89053 15.1973V16.3047C9.45433 16.4939 8.98316 16.5891 8.50772 16.584C7.76944 16.584 7.20303 16.3698 6.8085 15.9414C6.41397 15.513 6.21866 14.8932 6.22256 14.082C6.21226 13.6206 6.30991 13.1631 6.50772 12.7461C6.68739 12.3751 6.9746 12.0668 7.33194 11.8613C7.71799 11.6471 8.15425 11.5399 8.59561 11.5508C9.12021 11.5502 9.63822 11.6677 10.1112 11.8945L9.69913 12.9356C9.52312 12.8525 9.34172 12.7814 9.15616 12.7227C8.96675 12.6625 8.76896 12.6328 8.57022 12.6348H8.57413ZM15.1581 14.0625C15.1581 14.8867 14.9563 15.513 14.5526 15.9414C14.149 16.3698 13.5572 16.584 12.7773 16.584C12.0103 16.584 11.4244 16.3685 11.0194 15.9375C10.6145 15.5065 10.4101 14.8796 10.4062 14.0567C10.4062 13.2415 10.6099 12.6192 11.0175 12.1895C11.425 11.7598 12.0175 11.5449 12.7948 11.5449C13.5761 11.5449 14.1666 11.7585 14.5663 12.1856C14.9661 12.6126 15.1666 13.2383 15.1679 14.0625H15.1581ZM11.7909 14.0625C11.7909 15.0091 12.1164 15.4824 12.7675 15.4824C12.9129 15.4939 13.0588 15.4678 13.1912 15.4066C13.3236 15.3454 13.438 15.2511 13.5233 15.1328C13.6861 14.905 13.7668 14.5469 13.7655 14.0586C13.7642 13.5703 13.6822 13.2123 13.5194 12.9844C13.4368 12.8685 13.326 12.7757 13.1975 12.7145C13.069 12.6533 12.9271 12.6259 12.7851 12.6348C12.121 12.6348 11.7896 13.112 11.7909 14.0664V14.0625ZM19.0019 16.5156H15.4491V15.6465L16.6444 14.4375C16.9869 14.0807 17.2102 13.8366 17.3144 13.7051C17.4013 13.6051 17.4749 13.4941 17.5331 13.375C17.5741 13.2821 17.5954 13.1817 17.5956 13.0801C17.5979 13.0241 17.5881 12.9682 17.5669 12.9163C17.5456 12.8644 17.5135 12.8177 17.4726 12.7793C17.374 12.6999 17.2493 12.6602 17.123 12.668C16.9585 12.6713 16.7977 12.7171 16.6562 12.8008C16.4674 12.9099 16.2895 13.0368 16.1249 13.1797L15.3983 12.3301C15.5929 12.1472 15.8064 11.9855 16.0351 11.8477C16.2102 11.7482 16.3981 11.6733 16.5937 11.625C16.8173 11.5701 17.047 11.5439 17.2773 11.5469C17.5685 11.5421 17.8575 11.5994 18.1249 11.7149C18.3625 11.8133 18.5661 11.9789 18.7108 12.1914C18.8488 12.3968 18.921 12.6393 18.9179 12.8867C18.9189 13.0663 18.8946 13.2452 18.8456 13.418C18.7937 13.5882 18.7188 13.7505 18.623 13.9004C18.5088 14.0778 18.378 14.2439 18.2323 14.3965C18.067 14.5723 17.7128 14.903 17.1698 15.3887V15.4219H19.0214V16.5117L19.0019 16.5156ZM18.4687 8.03322C18.778 7.98368 19.0909 7.96016 19.4042 7.9629C20.0762 7.95834 20.7416 8.09508 21.3574 8.36426C21.9731 8.63344 22.5254 9.02904 22.9784 9.5254C23.1948 9.76237 23.3908 10.0172 23.5644 10.2871C24.2031 11.3408 24.5264 12.5554 24.496 13.7871C24.4823 15.0195 24.1503 16.2461 23.4706 17.1485C23.0163 17.74 22.4435 18.2303 21.789 18.5879C21.0694 18.9749 20.2988 19.2583 19.4999 19.4297L19.3398 19.4492H5.06631H4.97647C4.48764 19.3907 4.0088 19.2672 3.55264 19.082C3.12488 18.9074 2.72638 18.6683 2.371 18.3731C2.04712 18.1029 1.75841 17.7932 1.51163 17.4512C0.860653 16.5481 0.507044 15.4648 0.499907 14.3516C0.481432 13.2264 0.863557 12.1312 1.57803 11.2617C1.82681 10.9669 2.11158 10.7044 2.42569 10.4805C2.82632 10.1945 3.26222 9.96143 3.72256 9.78712C4.07213 9.64957 4.43113 9.5373 4.79678 9.45118C5.16716 7.89161 6.05705 6.50443 7.32022 5.51759C8.4192 4.6752 9.73425 4.16124 11.1132 4.03517C12.4901 3.90011 13.8778 4.14321 15.1269 4.73829C16.5772 5.43301 17.7535 6.59283 18.4687 8.03322Z" fill="#214784"/>
</g>
</g>
<defs>
<clipPath id="clip0_48_11463">
<rect width="24" height="24" fill="white" transform="translate(0.625)"/>
</clipPath>
<clipPath id="clip1_48_11463">
<rect width="24" height="15.4531" fill="white" transform="translate(0.5 4)"/>
</clipPath>
</defs>
</svg>
