<svg width="25" height="24" viewBox="0 0 25 24" fill="none" xmlns="http://www.w3.org/2000/svg">
<path d="M12.735 14.9297C13.0591 14.9297 13.3039 14.8163 13.4833 14.583C13.6679 14.3431 13.7615 14.0247 13.7615 13.6365V12.6795C13.7615 12.2988 13.6668 11.9842 13.4801 11.7443C13.2983 11.5107 13.0534 11.3971 12.7314 11.3971C12.4103 11.3971 12.1694 11.5096 11.9948 11.741C11.8145 11.98 11.7231 12.2958 11.7231 12.6795V13.6365C11.7231 14.0249 11.8157 14.3436 11.9982 14.5836C12.175 14.8165 12.4161 14.9297 12.735 14.9297Z" fill="#214784"/>
<path d="M20.892 10.979C21.057 10.457 21.1405 9.91485 21.1405 9.3634C21.1405 6.40601 18.7345 4 15.7771 4C13.9833 4 12.2944 4.91462 11.3061 6.40397C10.5461 5.86137 9.6272 5.56516 8.68983 5.56516C6.20718 5.56516 4.18739 7.58494 4.18739 10.0676C4.18739 10.362 4.21596 10.655 4.27244 10.942C2.38941 11.3261 1 13.0056 1 14.9518C1 17.209 2.83628 19.0452 5.09336 19.0452H19.9067C22.1638 19.0452 24 17.2089 24 14.9518C24 13.0539 22.709 11.4258 20.892 10.979ZM9.72704 12.336L9.68557 12.4608H8.44424V12.3366C8.44424 12.0226 8.37102 11.7822 8.22656 11.622C8.08544 11.4655 7.85475 11.3862 7.54085 11.3862C7.26456 11.3862 7.0513 11.4954 6.88887 11.7199C6.71962 11.9537 6.63383 12.2593 6.63383 12.6284V13.6803C6.63383 14.0531 6.7239 14.3604 6.90153 14.5937C7.07361 14.8198 7.30047 14.9298 7.59509 14.9298C7.88698 14.9298 8.10233 14.8543 8.23506 14.7053C8.37141 14.5523 8.44056 14.3141 8.44056 13.9974V13.8732H9.67821L9.71979 13.998L9.72009 14.0171C9.73027 14.6179 9.54235 15.1031 9.16154 15.4594C8.78362 15.813 8.25657 15.9922 7.59505 15.9922C6.92866 15.9922 6.3789 15.7739 5.96094 15.3431C5.54392 14.9135 5.3325 14.3548 5.3325 13.6827V12.637C5.3325 11.9682 5.5386 11.41 5.94514 10.978C6.35377 10.5439 6.8906 10.3238 7.5408 10.3238C8.22085 10.3238 8.7627 10.5033 9.15126 10.8573C9.54369 11.2149 9.73748 11.7061 9.72729 12.3171L9.72704 12.336ZM15.0663 13.632C15.0663 14.3087 14.8481 14.8771 14.4179 15.3212C13.9867 15.7665 13.4205 15.9922 12.7349 15.9922C12.0539 15.9922 11.4918 15.7663 11.0642 15.3208C10.6379 14.8768 10.4217 14.3085 10.4217 13.632V12.684C10.4217 12.0099 10.6371 11.4424 11.0621 10.9972C11.4886 10.5503 12.0502 10.3237 12.7313 10.3237C13.4167 10.3237 13.9836 10.5501 14.4162 10.9965C14.8475 11.4419 15.0663 12.0096 15.0663 12.684V13.632ZM19.7104 15.9162H15.8655V15.052L17.6031 13.189C17.8391 12.9183 18.0102 12.6857 18.109 12.5007C18.2026 12.3256 18.25 12.1632 18.25 12.0182C18.25 11.8248 18.201 11.673 18.1003 11.5539C18.0047 11.4411 17.8695 11.3862 17.6867 11.3862C17.4821 11.3862 17.3327 11.4514 17.2299 11.5855C17.1209 11.7277 17.0656 11.9244 17.0656 12.1702V12.2944H15.8244L15.7829 12.1702L15.7824 12.1516C15.7695 11.6437 15.9391 11.2073 16.2867 10.8546C16.6338 10.5024 17.1048 10.3237 17.6867 10.3237C18.2588 10.3237 18.7172 10.4771 19.0493 10.7794C19.3848 11.0849 19.5549 11.4956 19.5549 12.0001C19.5549 12.3414 19.4599 12.6606 19.2725 12.9488C19.0945 13.2226 18.7986 13.5842 18.393 14.0237L17.6307 14.8537H19.7104V15.9162H19.7104Z" fill="#214784"/>
</svg>
