<svg width="24" height="24" viewBox="0 0 24 24" fill="none" xmlns="http://www.w3.org/2000/svg">
<g clip-path="url(#clip0_307_3173)">
<path d="M4.2503 12.3975C1.91009 12.3975 0 14.3003 0 16.6478C0 19.7753 3.29526 22.9904 4.2503 23.8653C5.20535 22.9977 8.50061 19.7753 8.50061 16.6478C8.50061 14.3003 6.59052 12.3975 4.2503 12.3975ZM4.2503 18.6162C3.16403 18.6162 2.2819 17.734 2.2819 16.6478C2.2819 15.5615 3.16403 14.6794 4.2503 14.6794C5.33657 14.6794 6.21871 15.5615 6.21871 16.6478C6.21871 17.734 5.33657 18.6162 4.2503 18.6162Z" fill="#FFBB01"/>
<path d="M19.7497 11.4644C20.7047 10.5968 24 7.37447 24 4.24689C24 1.90667 22.0972 -0.00341797 19.7497 -0.00341797C17.4095 -0.00341797 15.4994 1.89938 15.4994 4.24689C15.4994 7.37447 18.7946 10.5895 19.7497 11.4644ZM17.7813 4.3125C17.7813 3.22623 18.6634 2.34409 19.7497 2.34409C20.836 2.34409 21.7181 3.22623 21.7181 4.3125C21.7181 5.39877 20.836 6.28091 19.7497 6.28091C18.6634 6.28091 17.7813 5.39877 17.7813 4.3125Z" fill="#FFBB01"/>
<path d="M21.062 18.1205H15.288C14.3402 18.1205 13.5747 17.355 13.5747 16.4072C13.5747 15.4595 14.3402 14.694 15.288 14.694H17.424C18.9623 14.694 20.2236 13.5056 20.3475 12.0038C20.1579 12.1788 20.034 12.2808 20.0048 12.3027C19.9319 12.361 19.8372 12.3975 19.7497 12.3975C19.6549 12.3975 19.5674 12.3683 19.4945 12.3027C19.4654 12.2808 19.3341 12.1642 19.13 11.9819C19.0206 12.8203 18.2989 13.4765 17.4313 13.4765H15.2952C13.6768 13.4765 12.3572 14.796 12.3572 16.4145C12.3572 18.033 13.6768 19.3525 15.2952 19.3525H21.0692C22.017 19.3525 22.7825 20.118 22.7825 21.0658C22.7825 22.0135 22.017 22.779 21.0692 22.779H6.43741C6.01456 23.2675 5.61359 23.683 5.28552 24.0038H21.062C22.6804 24.0038 24 22.6842 24 21.0658C24 19.44 22.6804 18.1205 21.062 18.1205Z" fill="#FFBB01"/>
</g>
<defs>
<clipPath id="clip0_307_3173">
<rect width="24" height="24.0073" fill="white" transform="translate(0 -0.00341797)"/>
</clipPath>
</defs>
</svg>
