<svg width="25" height="24" viewBox="0 0 25 24" fill="none" xmlns="http://www.w3.org/2000/svg">
<path d="M8.375 2V5M16.375 2V5M3.875 9.09H20.875M19.585 15.77L16.045 19.31C15.905 19.45 15.775 19.71 15.745 19.9L15.555 21.25C15.485 21.74 15.825 22.08 16.315 22.01L17.665 21.82C17.855 21.79 18.125 21.66 18.255 21.52L21.795 17.98C22.405 17.37 22.695 16.66 21.795 15.76C20.905 14.87 20.195 15.16 19.585 15.77Z" stroke="#234B8E" stroke-width="1.5" stroke-miterlimit="10" stroke-linecap="round" stroke-linejoin="round"/>
<path d="M19.075 16.28C19.375 17.36 20.215 18.2 21.295 18.5M12.375 22H8.375C4.875 22 3.375 20 3.375 17V8.5C3.375 5.5 4.875 3.5 8.375 3.5H16.375C19.875 3.5 21.375 5.5 21.375 8.5V12" stroke="#234B8E" stroke-width="1.5" stroke-miterlimit="10" stroke-linecap="round" stroke-linejoin="round"/>
<path d="M12.3699 13.7H12.3799M8.66895 13.7H8.67895M8.66895 16.7H8.67895" stroke="#234B8E" stroke-width="2" stroke-linecap="round" stroke-linejoin="round"/>
</svg>
