<svg width="25" height="24" viewBox="0 0 25 24" fill="none" xmlns="http://www.w3.org/2000/svg">
<path fill-rule="evenodd" clip-rule="evenodd" d="M16.7859 2.76862L16.7869 3.51824C19.5415 3.73413 21.3612 5.61119 21.3641 8.48975L21.375 16.9155C21.3789 20.054 19.4072 21.985 16.2468 21.99L8.52688 22C5.38619 22.004 3.38982 20.027 3.38587 16.8795L3.37501 8.55272C3.37106 5.65517 5.12653 3.78311 7.88117 3.53024L7.88018 2.78061C7.8792 2.34083 8.20501 2.01 8.63944 2.01C9.07386 2.009 9.39968 2.33883 9.40067 2.77861L9.40166 3.47826L15.2664 3.47027L15.2654 2.77062C15.2644 2.33084 15.5902 2.001 16.0247 2C16.4492 1.999 16.7849 2.32884 16.7859 2.76862ZM4.89648 8.86157L19.8446 8.84158V8.49175C19.8022 6.34283 18.724 5.21539 16.7888 5.04748L16.7898 5.81709C16.7898 6.24688 16.4551 6.5877 16.0306 6.5877C15.5962 6.5887 15.2693 6.24887 15.2693 5.81909L15.2684 5.0095L9.40363 5.01749L9.40462 5.82609C9.40462 6.25687 9.07979 6.5967 8.64536 6.5967C8.21094 6.5977 7.88413 6.25887 7.88413 5.82809L7.88315 5.05847C5.95786 5.25137 4.89253 6.38281 4.89549 8.55072L4.89648 8.86157ZM15.6149 13.4043V13.4153C15.6248 13.8751 16 14.2239 16.4551 14.2139C16.8994 14.2029 17.2539 13.8221 17.244 13.3623C17.2233 12.9225 16.8668 12.5637 16.4235 12.5647C15.9694 12.5747 15.6139 12.9445 15.6149 13.4043ZM16.4304 17.892C15.9763 17.882 15.61 17.5032 15.609 17.0435C15.5991 16.5837 15.9634 16.2029 16.4176 16.1919H16.4275C16.8915 16.1919 17.2677 16.5707 17.2677 17.0405C17.2687 17.5102 16.8935 17.891 16.4304 17.892ZM11.5471 13.4203C11.5669 13.8801 11.943 14.2389 12.3972 14.2189C12.8415 14.1979 13.196 13.8181 13.1762 13.3583C13.1653 12.9085 12.8 12.5587 12.3557 12.5597C11.9016 12.5797 11.5461 12.9605 11.5471 13.4203ZM12.4012 17.8471C11.947 17.8671 11.5718 17.5082 11.5511 17.0485C11.5511 16.5887 11.9055 16.2089 12.3597 16.1879C12.804 16.1869 13.1703 16.5367 13.1802 16.9855C13.2009 17.4463 12.8455 17.8261 12.4012 17.8471ZM7.47933 13.4553C7.49908 13.915 7.87525 14.2749 8.32942 14.2539C8.77372 14.2339 9.12817 13.8531 9.10743 13.3933C9.09756 12.9435 8.73225 12.5937 8.28696 12.5947C7.83279 12.6147 7.47834 12.9955 7.47933 13.4553ZM8.33337 17.8521C7.8792 17.8731 7.50401 17.5132 7.48328 17.0535C7.48229 16.5937 7.83773 16.2129 8.2919 16.1929C8.7362 16.1919 9.1025 16.5417 9.11237 16.9915C9.1331 17.4513 8.77865 17.8321 8.33337 17.8521Z" fill="#234B8D"/>
</svg>
