<svg width="24" height="16" viewBox="0 0 24 16" fill="none" xmlns="http://www.w3.org/2000/svg">
<path d="M12.2451 11.5554C12.5833 11.5554 12.8387 11.437 13.0259 11.1936C13.2185 10.9433 13.3162 10.6109 13.3162 10.2059V9.20725C13.3162 8.8101 13.2174 8.48178 13.0226 8.23147C12.8329 7.98764 12.5773 7.86914 12.2414 7.86914C11.9063 7.86914 11.6549 7.98655 11.4727 8.22799C11.2846 8.47742 11.1892 8.80688 11.1892 9.20731V10.206C11.1892 10.6112 11.2858 10.9438 11.4762 11.1942C11.6608 11.4372 11.9123 11.5554 12.2451 11.5554Z" fill="#0BA87B"/>
<path d="M20.7569 7.43281C20.9291 6.88813 21.0161 6.3224 21.0161 5.74699C21.0161 2.66101 18.5055 0.150391 15.4196 0.150391C13.5478 0.150391 11.7855 1.10477 10.7542 2.65888C9.96118 2.09269 9.00229 1.7836 8.02417 1.7836C5.43358 1.7836 3.32598 3.8912 3.32598 6.48185C3.32598 6.78897 3.35578 7.09474 3.41472 7.39424C1.44982 7.79503 0 9.54751 0 11.5784C0 13.9337 1.91612 15.8498 4.27134 15.8498H19.7287C22.0839 15.8498 24 13.9336 24 11.5784C24 9.59794 22.6529 7.89901 20.7569 7.43281ZM9.10648 8.84883L9.0632 8.97909H7.7679V8.8495C7.7679 8.5218 7.6915 8.27092 7.54076 8.10376C7.3935 7.94053 7.15278 7.85775 6.82523 7.85775C6.53693 7.85775 6.3144 7.97163 6.1449 8.20592C5.9683 8.44986 5.87878 8.7688 5.87878 9.15398V10.2516C5.87878 10.6405 5.97276 10.9612 6.15812 11.2047C6.33768 11.4407 6.57441 11.5554 6.88184 11.5554C7.18642 11.5554 7.41112 11.4766 7.54962 11.3212C7.69191 11.1615 7.76407 10.9129 7.76407 10.5825V10.4529H9.05553L9.09891 10.5831L9.09922 10.603C9.10985 11.2299 8.91376 11.7362 8.51639 12.108C8.12204 12.4769 7.57207 12.664 6.88179 12.664C6.18642 12.664 5.61277 12.4362 5.17663 11.9866C4.74148 11.5384 4.52087 10.9554 4.52087 10.2541V9.16295C4.52087 8.46499 4.73593 7.88252 5.16015 7.43182C5.58654 6.97884 6.14672 6.74916 6.82518 6.74916C7.5348 6.74916 8.10021 6.93644 8.50566 7.30586C8.91516 7.67902 9.11737 8.19151 9.10674 8.82908L9.10648 8.84883ZM14.6778 10.2011C14.6778 10.9073 14.4502 11.5004 14.0013 11.9638C13.5514 12.4284 12.9605 12.664 12.2451 12.664C11.5345 12.664 10.948 12.4283 10.5018 11.9634C10.0569 11.5001 9.83134 10.9071 9.83134 10.2011V9.21193C9.83134 8.50859 10.0561 7.91637 10.4996 7.45178C10.9446 6.98553 11.5306 6.74905 12.2413 6.74905C12.9566 6.74905 13.5481 6.98527 13.9995 7.45111C14.4496 7.91586 14.6778 8.50828 14.6778 9.21193V10.2011ZM19.5239 12.5847H15.5119V11.6829L17.325 9.73893C17.5712 9.45644 17.7498 9.21369 17.8529 9.02066C17.9505 8.83794 18 8.66855 18 8.51724C18 8.31545 17.9489 8.15699 17.8437 8.03269C17.7441 7.91497 17.6029 7.85775 17.4122 7.85775C17.1987 7.85775 17.0428 7.92576 16.9355 8.06566C16.8218 8.21406 16.7641 8.41938 16.7641 8.6758V8.80539H15.469L15.4256 8.67586L15.4251 8.65642C15.4116 8.12641 15.5886 7.67104 15.9513 7.30306C16.3135 6.93545 16.805 6.74905 17.4122 6.74905C18.0092 6.74905 18.4875 6.90907 18.8341 7.22459C19.1841 7.54332 19.3616 7.97189 19.3616 8.49832C19.3616 8.85448 19.2625 9.18757 19.0669 9.48831C18.8812 9.77398 18.5725 10.1513 18.1493 10.6099L17.3538 11.476H19.5239V12.5847H19.5239Z" fill="#0BA87B"/>
</svg>
