<svg width="25" height="25" viewBox="0 0 25 25" fill="none" xmlns="http://www.w3.org/2000/svg">
<path d="M19.5 17.5H21.5C22.1 17.5 22.5 17.1 22.5 16.5V13.5C22.5 12.6 21.8 11.8 21 11.6C19.2 11.1 16.5 10.5 16.5 10.5C16.5 10.5 15.2 9.1 14.3 8.2C13.8 7.8 13.2 7.5 12.5 7.5H5.5C4.9 7.5 4.4 7.9 4.1 8.4L2.7 11.3C2.56758 11.6862 2.5 12.0917 2.5 12.5V16.5C2.5 17.1 2.9 17.5 3.5 17.5H5.5" stroke="#2EB5BA" stroke-width="2" stroke-linecap="round" stroke-linejoin="round"/>
<path d="M7.5 19.5C8.60457 19.5 9.5 18.6046 9.5 17.5C9.5 16.3954 8.60457 15.5 7.5 15.5C6.39543 15.5 5.5 16.3954 5.5 17.5C5.5 18.6046 6.39543 19.5 7.5 19.5Z" stroke="#2EB5BA" stroke-width="2" stroke-linecap="round" stroke-linejoin="round"/>
<path d="M9.5 17.5H15.5" stroke="#2EB5BA" stroke-width="2" stroke-linecap="round" stroke-linejoin="round"/>
<path d="M17.5 19.5C18.6046 19.5 19.5 18.6046 19.5 17.5C19.5 16.3954 18.6046 15.5 17.5 15.5C16.3954 15.5 15.5 16.3954 15.5 17.5C15.5 18.6046 16.3954 19.5 17.5 19.5Z" stroke="#2EB5BA" stroke-width="2" stroke-linecap="round" stroke-linejoin="round"/>
</svg>
