<svg width="33" height="32" viewBox="0 0 33 32" fill="none" xmlns="http://www.w3.org/2000/svg">
<path d="M5.83334 21.3332V18.1598C5.83334 15.3332 4.46 13.9998 4.5 10.6665C4.54 7.03984 6.48667 2.6665 10.5 2.6665C12.9933 2.6665 13.8333 5.0665 13.8333 7.33317C13.8333 11.4798 11.1667 14.8798 11.1667 18.9065V21.3332C11.1667 22.0404 10.8857 22.7187 10.3856 23.2188C9.88552 23.7189 9.20725 23.9998 8.5 23.9998C7.79276 23.9998 7.11448 23.7189 6.61438 23.2188C6.11429 22.7187 5.83334 22.0404 5.83334 21.3332Z" fill="#214784" stroke="#214784" stroke-width="2" stroke-linecap="round" stroke-linejoin="round"/>
<path d="M27.1666 26.6667V23.4933C27.1666 20.6667 28.54 19.3333 28.5 16C28.46 12.3733 26.5133 8 22.5 8C20.0066 8 19.1666 10.4 19.1666 12.6667C19.1666 16.8133 21.8333 20.2133 21.8333 24.24V26.6667C21.8333 27.3739 22.1142 28.0522 22.6143 28.5523C23.1144 29.0524 23.7927 29.3333 24.5 29.3333C25.2072 29.3333 25.8855 29.0524 26.3856 28.5523C26.8857 28.0522 27.1666 27.3739 27.1666 26.6667Z" fill="#214784" stroke="#214784" stroke-width="2" stroke-linecap="round" stroke-linejoin="round"/>
<path d="M21.8334 22.6665H27.1667" stroke="white" stroke-width="2" stroke-linecap="round" stroke-linejoin="round"/>
<path d="M5.83337 17.3335H11.1667" stroke="white" stroke-width="2" stroke-linecap="round" stroke-linejoin="round"/>
</svg>
