<svg width="33" height="32" viewBox="0 0 33 32" fill="none" xmlns="http://www.w3.org/2000/svg">
<path d="M6.16707 16.5298C3.04678 16.5298 0.5 19.0661 0.5 22.1951C0.5 26.364 4.89368 30.6494 6.16707 31.8155C7.44046 30.6591 11.8341 26.364 11.8341 22.1951C11.8341 19.0661 9.28736 16.5298 6.16707 16.5298ZM6.16707 24.8189C4.71871 24.8189 3.54253 23.6431 3.54253 22.1951C3.54253 20.7472 4.71871 19.5714 6.16707 19.5714C7.61543 19.5714 8.79162 20.7472 8.79162 22.1951C8.79162 23.6431 7.61543 24.8189 6.16707 24.8189Z" fill="#9A90CF"/>
<path d="M26.833 15.2858C28.1064 14.1294 32.5 9.83419 32.5 5.66535C32.5 2.54601 29.963 0 26.833 0C23.7127 0 21.1659 2.53629 21.1659 5.66535C21.1659 9.83419 25.5596 14.1196 26.833 15.2858ZM24.2084 5.75281C24.2084 4.30489 25.3846 3.12906 26.833 3.12906C28.2813 3.12906 29.4575 4.30489 29.4575 5.75281C29.4575 7.20073 28.2813 8.37656 26.833 8.37656C25.3846 8.37656 24.2084 7.20073 24.2084 5.75281Z" fill="#9A90CF"/>
<path d="M28.5826 24.1578H20.8839C19.6203 24.1578 18.5996 23.1374 18.5996 21.8742C18.5996 20.6109 19.6203 19.5905 20.8839 19.5905H23.7321C25.7831 19.5905 27.4647 18.0066 27.63 16.0047C27.3773 16.238 27.212 16.374 27.1731 16.4032C27.0759 16.4809 26.9496 16.5295 26.8329 16.5295C26.7065 16.5295 26.5899 16.4906 26.4927 16.4032C26.4538 16.374 26.2788 16.2185 26.0067 15.9756C25.8608 17.0931 24.8985 17.9677 23.7418 17.9677H20.8937C18.7357 17.9677 16.9763 19.7266 16.9763 21.8839C16.9763 24.0412 18.7357 25.8001 20.8937 25.8001H28.5923C29.856 25.8001 30.8766 26.8204 30.8766 28.0837C30.8766 29.347 29.856 30.3673 28.5923 30.3673H9.08321C8.51942 31.0184 7.98479 31.5723 7.54736 31.9999H28.5826C30.7406 31.9999 32.5 30.241 32.5 28.0837C32.5 25.9167 30.7406 24.1578 28.5826 24.1578Z" fill="#9A90CF"/>
</svg>
