<svg width="105" height="28" viewBox="0 0 105 28" fill="none" xmlns="http://www.w3.org/2000/svg">
<path fill-rule="evenodd" clip-rule="evenodd" d="M46.5002 10.0679V18.5754C46.5002 18.5754 49.5973 19.3443 54.4474 19.3443C59.2663 19.3443 62.3963 18.579 62.3963 18.579V15.6898C62.3963 15.6898 59.0309 16.3494 54.4163 16.3494C52.1765 16.3494 50.6912 16.0871 49.8942 16.0052C49.8907 15.3122 49.896 13.3442 49.8942 12.641C50.7874 12.5532 52.2888 12.2945 54.448 12.2945C58.9413 12.3106 62.3969 12.9798 62.3969 12.9798V10.0684C62.3969 10.0684 59.3129 9.30074 54.448 9.30074C49.5483 9.30014 46.5002 10.0679 46.5002 10.0679ZM66.1704 19.1514H69.6511V9.45846H66.1704V19.1514ZM19.5991 19.1514H23.0798V9.45846H19.5991V19.1514ZM39.2795 15.4849C39.2795 15.4849 36.7654 13.6238 33.0655 11.7066C29.8273 10.029 26.9787 9.47459 26.9787 9.47459V19.1508H30.3477V13.9799C31.1566 14.3091 32.0277 14.664 33.0601 15.1993C36.7595 17.1165 39.2765 19.1514 39.2765 19.1514H42.6574V9.45846H39.2795V15.4849ZM8.64022 15.1025C7.86295 14.3754 2.58454 9.29297 2.58454 9.29297L0 11.6475L8.64022 19.4101L17.2757 11.6535L14.6983 9.29297C14.6983 9.29297 9.42108 14.3754 8.64022 15.1025Z" fill="white"/>
<path fill-rule="evenodd" clip-rule="evenodd" d="M93.6006 7.95555C93.778 7.95571 93.9537 7.9209 94.1177 7.85311C94.2816 7.78533 94.4306 7.6859 94.5561 7.5605C94.6816 7.43511 94.7812 7.28621 94.8491 7.12231C94.917 6.95842 94.952 6.78274 94.952 6.60533V1.35201C94.9522 1.17447 94.9173 0.998636 94.8495 0.83457C94.7816 0.670505 94.6821 0.521425 94.5566 0.395855C94.4311 0.270286 94.282 0.170692 94.118 0.102768C93.9539 0.0348431 93.7781 -7.84611e-05 93.6006 1.32365e-07H88.3497C88.1723 -3.02582e-07 87.9966 0.0349912 87.8327 0.102973C87.6689 0.170954 87.52 0.270589 87.3947 0.396174C87.2694 0.52176 87.1701 0.670828 87.1025 0.834844C87.0348 0.99886 87.0002 1.17461 87.0006 1.35201V5.37818C87.0006 6.62982 86.0459 7.70403 85.6379 8.1306C85.225 8.56016 84.1174 9.4623 82.3472 9.46469H77.5049V17.4501H85.4873V12.6054C85.4933 10.8358 86.3895 9.72876 86.8196 9.31772C87.248 8.90668 88.3216 7.95555 89.5708 7.95555H93.6006ZM103.662 10.4427C102.833 9.60748 101.677 9.10145 100.394 9.10145C97.7695 9.10145 95.6743 11.2385 95.6743 13.7908C95.6743 14.2586 95.8774 15.1386 95.8774 15.5156C95.8777 15.993 95.7838 16.4659 95.6013 16.907C95.4187 17.3482 95.151 17.7491 94.8134 18.0868C94.4759 18.4244 94.0751 18.6923 93.634 18.875C93.1928 19.0577 92.7201 19.1517 92.2426 19.1516H88.3497C88.1722 19.1519 87.9965 19.1871 87.8326 19.2553C87.6687 19.3234 87.5199 19.4232 87.3946 19.549C87.2693 19.6747 87.17 19.8239 87.1024 19.988C87.0348 20.1521 87.0002 20.3279 87.0006 20.5054V25.7576C87.0003 25.935 87.035 26.1107 87.1026 26.2747C87.1703 26.4387 87.2696 26.5878 87.3948 26.7134C87.5201 26.839 87.6689 26.9387 87.8328 27.0068C87.9966 27.0749 88.1722 27.11 88.3497 27.1102H93.6006C93.7781 27.1101 93.9539 27.075 94.1179 27.007C94.2819 26.939 94.4309 26.8393 94.5564 26.7137C94.6819 26.5881 94.7814 26.4391 94.8493 26.275C94.9172 26.1109 94.9521 25.9351 94.952 25.7576V21.8622C94.9526 20.8979 95.3361 19.9732 96.0181 19.2914C96.7001 18.6096 97.6249 18.2265 98.5892 18.2262C98.965 18.2262 99.8469 18.4293 100.315 18.4293C102.866 18.4293 105 16.3359 105 13.7119C105.002 12.4884 104.521 11.3137 103.662 10.4427Z" fill="#CC2131"/>
</svg>
