<svg width="105" height="28" viewBox="0 0 105 28" fill="none" xmlns="http://www.w3.org/2000/svg">
<path fill-rule="evenodd" clip-rule="evenodd" d="M46.5002 10.0675V18.5751C46.5002 18.5751 49.5973 19.344 54.4474 19.344C59.2663 19.344 62.3963 18.5787 62.3963 18.5787V15.6895C62.3963 15.6895 59.0309 16.349 54.4163 16.349C52.1765 16.349 50.6912 16.0868 49.8942 16.0049C49.8907 15.3119 49.896 13.3439 49.8942 12.6407C50.7874 12.5529 52.2888 12.2942 54.448 12.2942C58.9413 12.3103 62.3969 12.9795 62.3969 12.9795V10.0681C62.3969 10.0681 59.3129 9.30042 54.448 9.30042C49.5483 9.29982 46.5002 10.0675 46.5002 10.0675ZM66.1704 19.1511H69.6511V9.45814H66.1704V19.1511ZM19.5991 19.1511H23.0798V9.45814H19.5991V19.1511ZM39.2795 15.4845C39.2795 15.4845 36.7654 13.6235 33.0655 11.7063C29.8273 10.0287 26.9787 9.47427 26.9787 9.47427V19.1505H30.3477V13.9796C31.1566 14.3088 32.0277 14.6637 33.0601 15.199C36.7595 17.1162 39.2765 19.1511 39.2765 19.1511H42.6574V9.45814H39.2795V15.4845ZM8.64022 15.1022C7.86295 14.3751 2.58454 9.29265 2.58454 9.29265L0 11.6472L8.64022 19.4097L17.2757 11.6531L14.6983 9.29265C14.6983 9.29265 9.42108 14.3751 8.64022 15.1022Z" fill="#234B8E"/>
<path fill-rule="evenodd" clip-rule="evenodd" d="M93.6002 7.95555C93.7776 7.95571 93.9533 7.9209 94.1173 7.85311C94.2812 7.78533 94.4302 7.6859 94.5557 7.5605C94.6812 7.43511 94.7808 7.28621 94.8487 7.12231C94.9167 6.95842 94.9516 6.78274 94.9516 6.60533V1.35201C94.9518 1.17447 94.917 0.998636 94.8491 0.83457C94.7812 0.670505 94.6817 0.521425 94.5562 0.395855C94.4307 0.270286 94.2817 0.170692 94.1176 0.102768C93.9536 0.0348431 93.7778 -7.84611e-05 93.6002 1.32365e-07H88.3493C88.1719 -3.02582e-07 87.9962 0.0349912 87.8324 0.102973C87.6685 0.170954 87.5196 0.270589 87.3943 0.396174C87.269 0.52176 87.1697 0.670828 87.1021 0.834844C87.0345 0.99886 86.9999 1.17461 87.0003 1.35201V5.37818C87.0003 6.62982 86.0456 7.70403 85.6375 8.1306C85.2247 8.56016 84.117 9.4623 82.3468 9.46469H77.5045V17.4501H85.4869V12.6054C85.4929 10.8358 86.3891 9.72876 86.8193 9.31772C87.2476 8.90668 88.3212 7.95555 89.5705 7.95555H93.6002ZM103.661 10.4427C102.833 9.60748 101.676 9.10145 100.394 9.10145C97.7692 9.10145 95.674 11.2385 95.674 13.7908C95.674 14.2586 95.8771 15.1386 95.8771 15.5156C95.8773 15.993 95.7835 16.4659 95.6009 16.907C95.4183 17.3482 95.1506 17.7491 94.8131 18.0868C94.4755 18.4244 94.0747 18.6923 93.6336 18.875C93.1925 19.0577 92.7197 19.1517 92.2422 19.1516H88.3493C88.1718 19.1519 87.9961 19.1871 87.8322 19.2553C87.6683 19.3234 87.5195 19.4232 87.3942 19.549C87.2689 19.6747 87.1697 19.8239 87.1021 19.988C87.0345 20.1521 86.9999 20.3279 87.0003 20.5054V25.7576C87 25.935 87.0346 26.1107 87.1022 26.2747C87.1699 26.4387 87.2692 26.5878 87.3945 26.7134C87.5198 26.839 87.6686 26.9387 87.8324 27.0068C87.9962 27.0749 88.1719 27.11 88.3493 27.1102H93.6002C93.7778 27.1101 93.9536 27.075 94.1176 27.007C94.2816 26.939 94.4306 26.8393 94.5561 26.7137C94.6816 26.5881 94.7811 26.4391 94.8489 26.275C94.9168 26.1109 94.9517 25.9351 94.9516 25.7576V21.8622C94.9523 20.8979 95.3357 19.9732 96.0177 19.2914C96.6997 18.6096 97.6245 18.2265 98.5889 18.2262C98.9647 18.2262 99.8465 18.4293 100.315 18.4293C102.866 18.4293 105 16.3359 105 13.7119C105.001 12.4884 104.52 11.3137 103.661 10.4427Z" fill="#CC2131"/>
</svg>
