<svg width="30" height="30" viewBox="0 0 30 30" fill="none" xmlns="http://www.w3.org/2000/svg">
<path d="M6.33667 23.3866C6.98334 23.7899 8.05834 24.2383 9.195 24.2383C10.23 24.2383 11.1917 23.9383 11.9883 23.4266C11.9883 23.4266 11.99 23.4266 11.9917 23.4249L15 21.5449V28.3333C14.5233 28.3333 14.0433 28.2033 13.6267 27.9433L6.33667 23.3866Z" fill="#225086"/>
<path d="M13.0883 2.5115L0.588327 16.6115C-0.376673 17.7015 -0.125006 19.3482 1.12666 20.1298C1.12666 20.1298 5.75333 23.0215 6.33666 23.3865C6.98333 23.7898 8.05833 24.2382 9.19499 24.2382C10.23 24.2382 11.1917 23.9382 11.9883 23.4265C11.9883 23.4265 11.99 23.4265 11.9917 23.4248L15 21.5448L7.72666 16.9982L15.0017 8.7915V1.6665C14.295 1.6665 13.5883 1.94817 13.0883 2.5115Z" fill="#66DDFF"/>
<path d="M7.72656 16.9982L7.81323 17.0515L14.9999 21.5448H15.0016V8.79317L14.9999 8.7915L7.72656 16.9982Z" fill="#CBF8FF"/>
<path d="M28.8734 20.13C30.125 19.3483 30.3767 17.7017 29.4117 16.6117L21.21 7.36C20.5484 7.05167 19.8067 6.875 19.0217 6.875C17.48 6.875 16.1017 7.54 15.185 8.585L15.0034 8.79L22.2767 16.9967L15.0017 21.5433V28.3317C15.48 28.3317 15.9567 28.2017 16.3734 27.9417L28.8734 20.1283V20.13Z" fill="#074793"/>
<path d="M15.0017 1.6665V8.7915L15.1833 8.5865C16.1 7.5415 17.4783 6.8765 19.02 6.8765C19.8067 6.8765 20.5467 7.05484 21.2083 7.3615L16.91 2.51317C16.4117 1.94984 15.705 1.66817 15 1.66817L15.0017 1.6665Z" fill="#0294E4"/>
<path d="M22.275 16.9985L15.0017 8.79346V21.5435L22.275 16.9985Z" fill="#96BCC2"/>
</svg>
