<svg width="33" height="32" viewBox="0 0 33 32" fill="none" xmlns="http://www.w3.org/2000/svg">
<path fill-rule="evenodd" clip-rule="evenodd" d="M20.8237 6.31642C20.8237 9.27775 23.2278 11.6784 26.1935 11.6784C26.5201 11.6768 26.8458 11.6454 27.1666 11.5847V22.215C27.1666 26.6872 24.5286 29.333 20.0499 29.333H10.2951C5.80463 29.333 3.16663 26.6872 3.16663 22.215V12.4745C3.16663 8.00228 5.80463 5.33301 10.2951 5.33301H20.9175C20.8544 5.65701 20.823 5.98636 20.8237 6.31642ZM18.0333 19.8618L21.8437 14.9447V14.9213C22.1699 14.483 22.0867 13.8649 21.6561 13.5281C21.4477 13.3673 21.1829 13.2976 20.9222 13.3351C20.6614 13.3726 20.4271 13.5141 20.2726 13.7272L17.0601 17.8598L13.4021 14.9798C13.1932 14.8171 12.9276 14.7453 12.665 14.7805C12.4025 14.8158 12.1653 14.9551 12.0069 15.1672L8.06746 20.2481C7.92899 20.4207 7.85444 20.6358 7.85642 20.8569C7.83355 21.3039 8.11579 21.7099 8.54313 21.8447C8.97047 21.9796 9.43513 21.8094 9.67371 21.4306L12.9683 17.1691L16.6263 20.0374C16.8344 20.2051 17.1018 20.2812 17.3672 20.2481C17.6325 20.2149 17.8729 20.0755 18.0333 19.8618Z" fill="#44C17E"/>
<ellipse opacity="0.4" cx="26.5" cy="5.99984" rx="3.33333" ry="3.33333" fill="#44C17E"/>
</svg>
