<svg width="28" height="28" viewBox="0 0 28 28" fill="none" xmlns="http://www.w3.org/2000/svg">
<path fill-rule="evenodd" clip-rule="evenodd" d="M16.6001 7.95555C16.7775 7.95571 16.9532 7.9209 17.1172 7.85311C17.2811 7.78533 17.4301 7.6859 17.5556 7.5605C17.6811 7.43511 17.7807 7.28621 17.8486 7.12231C17.9166 6.95842 17.9515 6.78274 17.9515 6.60533V1.35201C17.9517 1.17447 17.9168 0.998636 17.849 0.83457C17.7811 0.670505 17.6816 0.521425 17.5561 0.395855C17.4306 0.270286 17.2815 0.170692 17.1175 0.102768C16.9535 0.0348431 16.7776 -7.84611e-05 16.6001 1.32365e-07H11.3492C11.1718 -3.02582e-07 10.9961 0.0349912 10.8322 0.102973C10.6684 0.170954 10.5195 0.270589 10.3942 0.396174C10.2689 0.52176 10.1696 0.670828 10.102 0.834844C10.0344 0.99886 9.99976 1.17461 10.0001 1.35201V5.37818C10.0001 6.62982 9.04543 7.70403 8.63738 8.1306C8.22455 8.56016 7.11689 9.4623 5.34667 9.46469H0.504395V17.4501H8.48682V12.6054C8.4928 10.8358 9.38897 9.72876 9.81913 9.31772C10.2475 8.90668 11.3211 7.95555 12.5703 7.95555H16.6001ZM26.661 10.4427C25.8324 9.60748 24.6763 9.10145 23.3936 9.10145C20.7691 9.10145 18.6738 11.2385 18.6738 13.7908C18.6738 14.2586 18.877 15.1386 18.877 15.5156C18.8772 15.993 18.7833 16.4659 18.6008 16.907C18.4182 17.3482 18.1505 17.7491 17.8129 18.0868C17.4754 18.4244 17.0746 18.6923 16.6335 18.875C16.1924 19.0577 15.7196 19.1517 15.2421 19.1516H11.3492C11.1717 19.1519 10.996 19.1871 10.8321 19.2553C10.6682 19.3234 10.5194 19.4232 10.3941 19.549C10.2688 19.6747 10.1695 19.8239 10.1019 19.988C10.0343 20.1521 9.99976 20.3279 10.0001 20.5054V25.7576C9.99984 25.935 10.0345 26.1107 10.1021 26.2747C10.1698 26.4387 10.2691 26.5878 10.3944 26.7134C10.5196 26.839 10.6684 26.9387 10.8323 27.0068C10.9961 27.0749 11.1718 27.11 11.3492 27.1102H16.6001C16.7776 27.1101 16.9534 27.075 17.1174 27.007C17.2815 26.939 17.4305 26.8393 17.5559 26.7137C17.6814 26.5881 17.781 26.4391 17.8488 26.275C17.9167 26.1109 17.9516 25.9351 17.9515 25.7576V21.8622C17.9522 20.8979 18.3356 19.9732 19.0176 19.2914C19.6996 18.6096 20.6244 18.2265 21.5888 18.2262C21.9645 18.2262 22.8464 18.4293 23.3148 18.4293C25.8658 18.4293 27.9999 16.3359 27.9999 13.7119C28.0013 12.4884 27.5202 11.3137 26.661 10.4427Z" fill="#CC2131"/>
</svg>
